<?xml version="1.0" encoding="utf-8"?>
<!-- Generator: Adobe Illustrator 16.0.0, SVG Export Plug-In . SVG Version: 6.00 Build 0)  -->
<!DOCTYPE svg PUBLIC "-//W3C//DTD SVG 1.1//EN" "http://www.w3.org/Graphics/SVG/1.1/DTD/svg11.dtd">
<svg version="1.1" id="Layer_1" xmlns="http://www.w3.org/2000/svg" xmlns:xlink="http://www.w3.org/1999/xlink" x="0px" y="0px"
	 width="356.475px" height="68.483px" viewBox="0 0 356.475 68.483" enable-background="new 0 0 356.475 68.483"
	 xml:space="preserve">
<g>
	<polygon fill="#FFFFFF" points="342.858,68.145 320.827,52.138 298.796,68.145 307.211,42.245 285.18,26.238 263.148,42.245 
		271.563,68.145 249.532,52.138 227.501,68.145 235.916,42.245 213.885,26.238 191.854,42.245 200.269,68.145 178.237,52.138 
		156.206,68.145 164.621,42.245 142.59,26.238 120.559,42.245 128.974,68.145 106.942,52.138 84.911,68.145 93.326,42.245 
		71.295,26.238 49.264,42.245 57.679,68.145 35.647,52.138 13.616,68.145 22.031,42.245 0,26.238 0,68.483 356.475,68.483 
		356.475,26.238 334.443,42.245 	"/>
	<polygon fill="#FFFFFF" points="0,0 0,26.238 27.232,26.238 35.647,0.339 44.063,26.238 71.295,26.238 98.527,26.238 
		106.942,0.339 115.357,26.238 142.59,26.238 169.822,26.238 178.237,0.339 186.652,26.238 213.885,26.238 241.117,26.238 
		249.532,0.339 257.947,26.238 285.18,26.238 312.412,26.238 320.827,0.339 329.242,26.238 356.475,26.238 356.475,0 	"/>
</g>
</svg>
