<?xml version="1.0" encoding="utf-8"?>
<!-- Generator: Adobe Illustrator 21.1.0, SVG Export Plug-In . SVG Version: 6.00 Build 0)  -->
<svg version="1.1" id="Layer_1" xmlns="http://www.w3.org/2000/svg" xmlns:xlink="http://www.w3.org/1999/xlink" x="0px" y="0px"
	 viewBox="0 0 379.4 287.1" style="enable-background:new 0 0 379.4 287.1;" xml:space="preserve">
<style type="text/css">
	.st0{opacity:0.15;fill:#3DB7E4;enable-background:new    ;}
	.st1{fill:#3DB7E4;}
</style>
<rect x="134.3" y="42" transform="matrix(0.7071 -0.7071 0.7071 0.7071 -32.4315 208.7859)" class="st0" width="203" height="203"/>
<path class="st1" d="M277.5,139.6l-41.7-46.5c-2.2-2.5-6-2.7-8.5-0.5s-2.7,6-0.5,8.5l32.7,36.5H6c-3.3,0-6,2.7-6,6s2.7,6,6,6h253.5
	L226.3,186c-2.2,2.5-2,6.3,0.5,8.5c1.1,1,2.6,1.5,4,1.5c1.6,0,3.3-0.7,4.5-2l42.2-46.4C279.5,145.3,279.5,141.8,277.5,139.6z"/>
</svg>
